<?xml version="1.0" standalone="no"?><!DOCTYPE svg PUBLIC "-//W3C//DTD SVG 1.1//EN" "http://www.w3.org/Graphics/SVG/1.1/DTD/svg11.dtd"><svg t="1496504200366" class="icon" style="" viewBox="0 0 1024 1024" version="1.1" xmlns="http://www.w3.org/2000/svg" p-id="17841" xmlns:xlink="http://www.w3.org/1999/xlink" width="200" height="200"><defs><style type="text/css"></style></defs><path d="M866.1 252.043h-710.003c-21.195 0-38.38-17.184-38.38-38.38v-19.188c0-21.214 17.184-38.38 38.38-38.38h710.001c21.194 0 38.38 17.167 38.38 38.38v19.188c0.001 21.196-17.184 38.381-38.379 38.381zM156.1 463.123h633.245c21.193 0 38.379 17.182 38.379 38.377v19.189c0 21.192-17.184 38.377-38.379 38.377h-633.245c-21.195 0-38.38-17.184-38.38-38.377v-19.189c0-21.195 17.185-38.378 38.38-38.378zM156.1 770.15h518.11c21.194 0 38.379 17.185 38.379 38.381v19.196c0 21.177-17.183 38.381-38.379 38.381h-518.11c-21.195 0-38.38-17.204-38.38-38.381v-19.196c0-21.194 17.185-38.381 38.38-38.381z" p-id="17842" fill="#ffffff"></path></svg>