<?xml version="1.0" standalone="no"?><!DOCTYPE svg PUBLIC "-//W3C//DTD SVG 1.1//EN" "http://www.w3.org/Graphics/SVG/1.1/DTD/svg11.dtd"><svg t="1497197225414" class="icon" style="" viewBox="0 0 1024 1024" version="1.1" xmlns="http://www.w3.org/2000/svg" p-id="2137" xmlns:xlink="http://www.w3.org/1999/xlink" width="200" height="200"><defs><style type="text/css"></style></defs><path d="M510 0C228.4 0 0 228.352 0 510 0 791.664 228.368 1020 510 1020c281.664 0 510-228.288 510-510C1020 228.4 791.664 0 510 0zM719.088 651.536c8.688 8.64 14.032 20.56 14.032 33.776 0 26.432-21.376 47.808-47.808 47.808-13.12 0-25.136-5.344-33.776-14.032l-141.536-141.456-141.44 141.504c-8.704 8.688-20.656 14.032-33.872 14.032-26.352 0-47.776-21.376-47.776-47.824 0-13.216 5.344-25.104 13.984-33.744l141.52-141.6-141.488-141.488c-8.656-8.672-13.984-20.624-13.984-33.824 0-26.4 21.408-47.808 47.808-47.808 13.168 0 25.12 5.328 33.792 13.984l141.44 141.52 141.536-141.488c8.64-8.64 20.656-13.984 33.776-13.984 26.384 0 47.808 21.376 47.808 47.808 0 13.216-5.344 25.168-14.032 33.824l-141.44 141.44L719.088 651.536z" p-id="2138" fill="#686868"></path></svg>