<?xml version="1.0" standalone="no"?><!DOCTYPE svg PUBLIC "-//W3C//DTD SVG 1.1//EN" "http://www.w3.org/Graphics/SVG/1.1/DTD/svg11.dtd"><svg t="1497713343890" class="icon" style="" viewBox="0 0 1707 1024" version="1.1" xmlns="http://www.w3.org/2000/svg" p-id="6582" xmlns:xlink="http://www.w3.org/1999/xlink" width="333.3984375" height="200"><defs><style type="text/css"></style></defs><path d="M853.333333 1024C382.037333 1024 0 511.914667 0 511.914667 0 511.914667 382.037333-0.085333 853.333333-0.085333 1324.629333-0.085333 1706.666667 511.914667 1706.666667 511.914667 1706.666667 511.914667 1324.629333 1024 853.333333 1024ZM853.930667 170.154667C617.813333 169.045333 426.410667 320.938667 426.410667 509.354667 426.410667 697.770667 617.813333 851.370667 853.930667 852.48 1090.048 853.589333 1281.365333 701.696 1281.365333 513.28 1281.365333 324.864 1090.048 171.264 853.930667 170.154667ZM853.333333 682.666667C759.04 682.666667 682.666667 606.293333 682.666667 512 682.666667 417.706667 759.04 341.333333 853.333333 341.333333 947.626667 341.333333 1024 417.706667 1024 512 1024 606.293333 947.626667 682.666667 853.333333 682.666667Z" p-id="6583" fill="#ffffff"></path></svg>