<?xml version="1.0" standalone="no"?><!DOCTYPE svg PUBLIC "-//W3C//DTD SVG 1.1//EN" "http://www.w3.org/Graphics/SVG/1.1/DTD/svg11.dtd"><svg t="1496596279002" class="icon" style="" viewBox="0 0 1024 1024" version="1.1" xmlns="http://www.w3.org/2000/svg" p-id="41177" xmlns:xlink="http://www.w3.org/1999/xlink" width="200" height="200"><defs><style type="text/css"></style></defs><path d="M947.749362 890.960984 732.357733 675.618475c52.03512-64.46829 83.365686-146.311297 83.365686-235.407498 0-207.133547-168.508855-375.694591-375.590214-375.694591-207.133547 0-375.642402 168.561044-375.642402 375.694591 0 207.081359 168.508855 375.590214 375.642402 375.590214 89.124853 0 170.991396-31.346939 235.468896-83.414805l215.385489 215.33637c7.839549 7.839549 18.083867 11.759835 28.381397 11.759835s20.540825-3.920286 28.381397-11.759835C963.429483 932.043658 963.429483 906.641105 947.749362 890.960984zM144.772244 440.210977c0-162.916487 132.496663-295.41315 295.360961-295.41315 162.811086 0 295.308773 132.496663 295.308773 295.41315 0 162.812109-132.496663 295.308773-295.308773 295.308773C277.268908 735.51975 144.772244 603.023086 144.772244 440.210977z" p-id="41178" fill="#ffffff"></path></svg>