<?xml version="1.0" standalone="no"?><!DOCTYPE svg PUBLIC "-//W3C//DTD SVG 1.1//EN" "http://www.w3.org/Graphics/SVG/1.1/DTD/svg11.dtd"><svg t="1497197296769" class="icon" style="" viewBox="0 0 1024 1024" version="1.1" xmlns="http://www.w3.org/2000/svg" p-id="2991" xmlns:xlink="http://www.w3.org/1999/xlink" width="200" height="200"><defs><style type="text/css"></style></defs><path d="M1004.980819 914.605497l-198.531636-198.531636c56.020898-74.769914 89.207741-167.636998 89.207741-268.255627C895.656925 200.494337 695.161565 0 447.837666 0 200.515815 0 0.020455 200.49536 0.020455 447.818235c0 247.322875 200.49536 447.818235 447.817212 447.818235 100.592023 0 193.435571-33.167401 268.196275-89.161692L914.84494 1005.285776l0.005117-0.005117c11.5695 11.56643 27.548426 18.71934 45.199435 18.71934 35.307134 0 63.930031-28.621874 63.930031-63.929008C1023.978499 942.281837 1016.706885 926.195463 1004.980819 914.605497zM128.079039 447.818235c0-176.599114 143.16156-319.759651 319.759651-319.759651 176.59809 0 319.760674 143.16156 319.760674 319.759651S624.43678 767.576863 447.837666 767.576863C271.240599 767.576863 128.079039 624.417349 128.079039 447.818235z" p-id="2992" fill="#b6b6b6"></path></svg>