<?xml version="1.0" standalone="no"?><!DOCTYPE svg PUBLIC "-//W3C//DTD SVG 1.1//EN" "http://www.w3.org/Graphics/SVG/1.1/DTD/svg11.dtd"><svg t="1497411818565" class="icon" style="" viewBox="0 0 1024 1024" version="1.1" xmlns="http://www.w3.org/2000/svg" p-id="4771" xmlns:xlink="http://www.w3.org/1999/xlink" width="200" height="200"><defs><style type="text/css"></style></defs><path d="M860.16 617.82016l0 156.99968c0 28.28288-22.91712 51.2-51.2 51.2s-51.2-22.91712-51.2-51.2l0-4.9152c-63.67232 59.06432-148.23424 93.67552-238.94016 93.67552-142.06976 0-269.35296-84.6848-324.32128-215.71584-2.70336-6.47168-3.97312-13.18912-3.97312-19.78368 0-20.02944 11.79648-39.0144 31.39584-47.24736 26.07104-10.93632 56.07424 1.3312 67.01056 27.42272 38.95296 92.89728 129.20832 152.92416 229.888 152.92416 76.53376 0 146.96448-34.73408 193.47456-92.16l-60.33408 0c-28.28288 0-51.2-22.91712-51.2-51.2s22.91712-51.2 51.2-51.2L808.96 566.62016C837.24288 566.62016 860.16 589.53728 860.16 617.82016zM372.03968 464.22016c28.28288 0 51.2-22.9376 51.2-51.2 0-28.28288-22.91712-51.2-51.2-51.2l-51.93728 0c46.36672-61.48096 119.21408-99.00032 198.71744-99.00032 100.70016 0 190.93504 60.04736 229.888 152.94464 10.93632 26.07104 40.93952 38.33856 67.01056 27.42272 26.07104-10.93632 38.33856-40.91904 27.42272-67.01056-54.96832-131.05152-182.25152-215.73632-324.32128-215.73632-97.28 0-187.63776 39.75168-252.57984 106.88512L266.24 256c0-28.28288-22.9376-51.2-51.2-51.2-28.28288 0-51.2 22.91712-51.2 51.2l0 157.02016c0 13.57824 5.40672 26.60352 14.99136 36.22912 9.60512 9.60512 22.60992 14.97088 36.20864 14.97088L372.03968 464.22016z" p-id="4772" fill="#707070"></path></svg>